PathFileType	4	(x/y/z)	S10_PSF_T03
DataRate	CameraRate	NumFrames	NumMarkers	Units	OrigDataRate	OrigDataStartFrame	OrigNumFrames
240	240	7	51	mm	240	276	440
Frame#	Time	Sternum			R.Acromium			L.Acromium			Top.Head			R.ASIS			L.ASIS			R.PSIS			L.PSIS			R.Great.Tro			L.Great.Tro			R.Iliac.Crest			L.Iliac.Crest			V.Sacral			R.Thigh.Upper.Post			R.Thigh.Lower.Ant			R.Thigh.Lower.Post			R.Thigh.Upper.Ant			R.Knee.Lat			R.Knee.Med			R.Shank.Upper.Post			R.Shank.Lower.Ant			R.Shank.Lower.Post			R.Shank.Upper.Ant			R.Ankle.Lat			R.Ankle.Med			R.Heel.Upper			R.Heel.Med			R.Heel.Lat			R.Toe.Lat			R.Toe.Med			R.Toe.Tip			L.Thigh.Upper.Post			L.Thigh.Lower.Ant			L.Thigh.Lower.Post			L.Thigh.Upper.Ant			L.Knee.Lat			L.Knee.Med			L.Shank.Upper.Post			L.Shank.Lower.Ant			L.Shank.Lower.Post			L.Shank.Upper.Ant			L.Ankle.Lat			L.Ankle.Med			L.Heel.Upper			L.Heel.Med			L.Heel.Lat			L.Toe.Lat			L.Toe.Med			L.Toe.Tip			Cervical.Spine			Back			
		X1	Y1	Z1	X2	Y2	Z2	X3	Y3	Z3	X4	Y4	Z4	X5	Y5	Z5	X6	Y6	Z6	X7	Y7	Z7	X8	Y8	Z8	X9	Y9	Z9	X10	Y10	Z10	X11	Y11	Z11	X12	Y12	Z12	X13	Y13	Z13	X14	Y14	Z14	X15	Y15	Z15	X16	Y16	Z16	X17	Y17	Z17	X18	Y18	Z18	X19	Y19	Z19	X20	Y20	Z20	X21	Y21	Z21	X22	Y22	Z22	X23	Y23	Z23	X24	Y24	Z24	X25	Y25	Z25	X26	Y26	Z26	X27	Y27	Z27	X28	Y28	Z28	X29	Y29	Z29	X30	Y30	Z30	X31	Y31	Z31	X32	Y32	Z32	X33	Y33	Z33	X34	Y34	Z34	X35	Y35	Z35	X36	Y36	Z36	X37	Y37	Z37	X38	Y38	Z38	X39	Y39	Z39	X40	Y40	Z40	X41	Y41	Z41	X42	Y42	Z42	X43	Y43	Z43	X44	Y44	Z44	X45	Y45	Z45	X46	Y46	Z46	X47	Y47	Z47	X48	Y48	Z48	X49	Y49	Z49	X50	Y50	Z50	X51	Y51	Z51	

276	1.1458	53.04	1238.5	324.26	-38.727	1399.6	486.27	-91.436	1419.1	183.7	-122.59	1707	347.17	-6.096	965.28	446.64	-9.569	990.21	217.77	-208.21	992.82	358.32	-204.74	1000.5	277.06	-94.511	895.59	519.84	-65.336	929.24	156.32	-95.799	1048.7	490.67	-77.228	1064	191.35	-227.23	961.74	321.16	-151.51	696.91	505.71	-124.91	606.4	465.37	-188.85	617.25	490.12	-83.693	687.03	479.01	-245.12	502.78	448.52	-243.06	511.67	320.75	-390.63	316.07	443.31	-349.15	234.65	426.11	-413.72	246.02	434.57	-318.13	304.64	434.58	-434.7	135.41	408.93	-415.89	145.05	330.93	-508.91	93.116	360.15	-500.51	64.172	333.7	-507.47	68.081	394.82	-341.16	38.075	448.29	-305.38	41.444	339.97	-248.04	48.345	385.49	-11.135	649.73	161.26	86.552	601	182.73	23.518	562.86	184.02	59.056	685.23	160.78	89.896	499.4	193.82	103.45	502.68	325.43	123.1	279.08	206.19	223.47	231.92	213.77	161.93	212	217.27	185.36	298.07	202.78	250.72	114.34	227.03	264.58	137.3	310.74	209.89	63.884	278.45	236.35	42.356	313.12	226.58	37.593	249.33	388.07	96.54	197.23	415.08	122.93	299.29	452.95	156.35	249.21	-140.82	1462.2	357.89	-230.17	1256.6	353.77
277	1.15	59.041	1237.6	323.64	-32.739	1398.7	485.62	-85.616	1418.1	183.1	-116.92	1706.1	346.64	0.14126	964.39	446.25	-3.5061	989.57	217.35	-202.04	991.91	358.05	-198.72	999.72	276.8	-88.425	894.63	519.5	-59.289	928.73	155.97	-89.616	1047.8	490.38	-71.304	1063.2	190.93	-221.05	960.84	320.84	-145.71	696.15	505.4	-119.14	605.56	465.28	-183.11	616.51	489.95	-77.901	686.17	478.81	-239.67	502.12	448.38	-237.35	510.87	320.64	-386.99	316.92	443.58	-346.59	235	426.16	-411.02	247.18	435.02	-314.66	304.63	434.61	-433.45	136.8	409.36	-414.5	146.16	331.26	-507.96	95.06	360.56	-499.94	66.269	333.99	-506.89	69.97	395.12	-340.92	38.046	448.42	-305.13	41.475	340.1	-247.8	48.065	385.57	-4.3016	649.37	161.13	93.388	600.8	183.03	30.346	562.6	184.17	65.864	684.93	160.79	96.585	499.05	194.22	109.79	502.62	325.68	128.24	278.58	206.59	228.21	230.72	214.57	166.56	211.23	217.67	190.62	297.14	203.6	254.3	113.39	227.6	268.13	135.77	311.52	212.76	64.017	279.12	238.86	41.834	313.71	229.01	37.546	249.9	391.14	93.985	198.01	418.52	119.68	300.08	456.85	152.62	250.08	-134.88	1461.5	357.32	-224.17	1255.8	353.45
278	1.1542	65.07	1236.7	323.02	-26.744	1397.8	484.95	-79.767	1417.2	182.48	-111.24	1705.3	346.11	6.4264	963.56	445.83	2.5894	988.98	216.91	-195.83	991.05	357.79	-192.66	998.95	276.56	-82.282	893.7	519.13	-53.213	928.28	155.61	-83.379	1046.9	490.09	-65.352	1062.5	190.5	-214.84	960	320.53	-139.8	695.4	505.06	-113.22	604.73	465.16	-177.22	615.76	489.75	-71.994	685.34	478.58	-234.04	501.44	448.23	-231.47	510.04	320.52	-383.21	317.8	443.86	-343.92	235.38	426.23	-408.2	248.38	435.48	-311.06	304.63	434.66	-432.09	138.26	409.82	-413.01	147.33	331.61	-506.92	97.133	360.98	-499.3	68.5	334.29	-506.23	71.987	395.44	-340.66	38.023	448.55	-304.88	41.502	340.24	-247.55	47.791	385.64	2.6066	649.08	160.99	100.29	600.67	183.37	37.24	562.4	184.34	72.747	684.7	160.82	103.35	498.8	194.63	116.16	502.61	325.94	133.33	278.16	206.92	232.85	229.53	215.34	171.08	210.5	217.99	195.83	296.24	204.41	257.63	112.44	228.09	271.45	134.18	312.24	215.33	64.245	279.73	241.01	41.353	314.21	231.07	37.575	250.39	393.9	91.217	198.72	421.69	116.15	300.8	460.53	148.55	250.89	-128.92	1460.7	356.71	-218.14	1254.9	353.11
279	1.1583	71.129	1235.9	322.38	-20.742	1397	484.27	-73.89	1416.3	181.83	-105.57	1704.5	345.57	12.757	962.77	445.39	8.7167	988.47	216.45	-189.58	990.25	357.53	-186.56	998.25	276.31	-76.083	892.78	518.73	-47.106	927.9	155.25	-77.091	1046	489.78	-59.37	1061.9	190.06	-208.6	959.22	320.21	-133.78	694.66	504.69	-107.16	603.92	465	-171.19	615	489.51	-65.97	684.54	478.32	-228.21	500.72	448.07	-225.42	509.19	320.38	-379.29	318.71	444.12	-341.13	235.78	426.31	-405.25	249.64	435.95	-307.33	304.64	434.72	-430.63	139.79	410.28	-411.42	148.56	331.98	-505.77	99.344	361.42	-498.58	70.872	334.6	-505.5	74.139	395.76	-340.38	38.008	448.68	-304.61	41.523	340.39	-247.31	47.523	385.71	9.5717	648.86	160.86	107.25	600.61	183.72	44.181	562.27	184.5	79.687	684.54	160.88	110.17	498.62	195.05	122.52	502.66	326.2	138.37	277.81	207.19	237.4	228.36	216.08	175.51	209.82	218.23	201	295.39	205.2	260.76	111.5	228.5	274.58	132.57	312.89	217.66	64.567	280.27	242.84	40.928	314.64	232.82	37.685	250.8	396.4	88.275	199.35	424.62	112.39	301.44	464.03	144.17	251.6	-122.95	1460	356.07	-212.08	1254.1	352.75
280	1.1625	77.216	1235.1	321.72	-14.734	1396.3	483.57	-67.985	1415.5	181.16	-99.889	1703.7	345.02	19.13	962.04	444.93	14.874	988.02	215.98	-183.3	989.5	357.27	-180.43	997.61	276.07	-69.828	891.89	518.3	-40.965	927.59	154.87	-70.754	1045.2	489.46	-53.359	1061.3	189.61	-202.32	958.5	319.89	-127.64	693.91	504.3	-100.94	603.12	464.82	-165.01	614.22	489.24	-59.828	683.76	478.03	-222.19	499.97	447.91	-219.2	508.31	320.22	-375.21	319.66	444.38	-338.22	236.23	426.4	-402.15	250.96	436.42	-303.46	304.67	434.79	-429.05	141.4	410.76	-409.72	149.87	332.38	-504.51	101.7	361.86	-497.76	73.392	334.92	-504.69	76.436	396.1	-340.1	38.004	448.82	-304.34	41.536	340.54	-247.06	47.261	385.76	16.576	648.7	160.73	114.24	600.62	184.1	51.155	562.21	184.67	86.665	684.45	160.97	117.04	498.52	195.46	128.88	502.77	326.46	143.38	277.56	207.39	241.9	227.23	216.77	179.88	209.22	218.39	206.14	294.59	205.97	263.72	110.59	228.83	277.56	130.95	313.48	219.79	64.982	280.76	244.4	40.572	315	234.31	37.877	251.15	398.65	85.197	199.9	427.35	108.47	302.01	467.36	139.55	252.22	-116.96	1459.3	355.41	-206	1253.4	352.37
281	1.1667	83.331	1234.4	321.05	-8.7227	1395.7	482.86	-62.056	1414.7	180.47	-94.212	1703.1	344.46	25.541	961.36	444.45	21.061	987.64	215.49	-176.99	988.82	357.01	-174.27	997.04	275.82	-63.516	891.03	517.84	-34.789	927.35	154.48	-64.373	1044.5	489.14	-47.317	1060.8	189.15	-196.02	957.85	319.57	-121.38	693.17	503.88	-94.571	602.34	464.61	-158.68	613.43	488.93	-53.566	683.02	477.71	-215.98	499.19	447.75	-212.82	507.4	320.05	-370.97	320.64	444.63	-335.17	236.71	426.51	-398.91	252.32	436.88	-299.44	304.72	434.87	-427.34	143.09	411.25	-407.9	151.24	332.79	-503.12	104.21	362.31	-496.84	76.068	335.24	-503.77	78.887	396.43	-339.79	38.013	448.95	-304.04	41.54	340.7	-246.82	47.006	385.81	23.602	648.62	160.6	121.25	600.69	184.49	58.145	562.21	184.83	93.664	684.42	161.07	123.94	498.51	195.87	135.21	502.93	326.71	148.37	277.38	207.52	246.34	226.15	217.43	184.2	208.68	218.47	211.27	293.86	206.7	266.53	109.71	229.1	280.43	129.36	314.01	221.76	65.483	281.2	245.74	40.292	315.29	235.58	38.149	251.43	400.7	82.025	200.38	429.88	104.44	302.5	470.53	134.75	252.72	-110.96	1458.7	354.71	-199.89	1252.7	351.97
282	1.1708	89.473	1233.8	320.37	-2.7074	1395.1	482.13	-56.101	1413.9	179.76	-88.536	1702.4	343.9	31.986	960.74	443.94	27.273	987.34	214.98	-170.65	988.2	356.76	-168.07	996.53	275.58	-57.15	890.21	517.36	-28.577	927.17	154.08	-57.95	1043.8	488.8	-41.246	1060.4	188.69	-189.68	957.26	319.25	-115	692.44	503.44	-88.048	601.57	464.36	-152.2	612.63	488.59	-47.183	682.31	477.36	-209.56	498.38	447.57	-206.26	506.47	319.86	-366.56	321.66	444.86	-331.97	237.24	426.64	-395.5	253.75	437.33	-295.29	304.8	434.96	-425.49	144.87	411.74	-405.94	152.69	333.21	-501.59	106.89	362.76	-495.8	78.906	335.56	-502.74	81.501	396.76	-339.46	38.039	449.08	-303.74	41.535	340.87	-246.58	46.757	385.84	30.633	648.61	160.47	128.26	600.83	184.89	65.138	562.28	184.98	100.67	684.47	161.2	130.85	498.57	196.25	141.51	503.15	326.96	153.36	277.3	207.57	250.76	225.14	218.04	188.49	208.23	218.49	216.39	293.2	207.39	269.21	108.88	229.29	283.19	127.82	314.48	223.6	66.06	281.6	246.9	40.093	315.52	236.68	38.493	251.64	402.56	78.797	200.77	432.25	100.34	302.91	473.56	129.81	253.12	-104.95	1458.2	353.99	-193.76	1252.1	351.55
